<?xml version="1.0" encoding="utf-8"?>
<!-- Generator: Adobe Illustrator 24.1.2, SVG Export Plug-In . SVG Version: 6.00 Build 0)  -->
<svg version="1.1" id="Layer_1" xmlns="http://www.w3.org/2000/svg" xmlns:xlink="http://www.w3.org/1999/xlink" x="0px" y="0px"
	 viewBox="0 0 271.56 125.78" style="enable-background:new 0 0 271.56 125.78;" xml:space="preserve">
<g>
	<g>
		<path d="M10.13,104.96l0.19-0.65c8.18-22.23,28.55-49.01,29.3-73.94c0-13.58-13.3-16.37-23.62-17.11
			c-3.16-0.19-10.6-0.19-12.09-0.37c-1.12-0.19-1.58-1.02-1.58-1.86c0-0.93,0.46-1.67,1.58-1.95c21.2-4.46,51.24-6.42,76.17-6.42
			c17.11,0,31.9,0.93,39.9,2.51c1.02,0.28,1.49,1.02,1.49,1.86c0,1.02-0.65,1.95-1.77,1.95l-0.47-0.09
			c-7.72-1.58-21.95-2.42-38.5-2.42c-18.88,0-39.62,1.02-59.15,3.53c10.7,1.49,21.95,6.04,21.95,20.27
			c-0.19,5.39-1.02,9.58-3.35,16.83c9.95-17.67,18.79-32.55,20.27-34.04c0.37-0.46,0.84-0.65,1.3-0.65c1.02,0,1.95,0.93,1.95,1.95
			c0,0.46-0.19,0.93-0.56,1.3c-1.67,1.77-15.25,25.02-27.99,48.27c-6.79,12.28-16.55,29.02-21.3,41.67
			c-0.28,0.84-1.02,1.21-1.67,1.21C10.97,106.64,10.13,106.17,10.13,104.96z"/>
		<path d="M44.54,74.92c0-0.28,0-0.56,0.19-0.84c2.14-4.46,7.91-15.53,10.7-20.09c0.46-0.65,1.02-0.93,1.58-0.93
			c1.02,0,1.95,0.93,1.95,1.86c0,0.37-0.09,0.65-0.28,1.02c-1.02,1.77-2.42,4.19-3.81,6.88c4.93-4.56,10.88-8.83,16.28-11.81
			c0.28-0.19,0.65-0.19,0.93-0.19c1.12,0,1.86,0.93,1.86,1.95c0,0.28-0.09,0.65-0.28,1.02c-1.02,1.58-1.86,3.53-1.86,5.11
			c0,2.98,3.72,4.09,6.51,4.37l2.7,0.09c8.74,0,19.07-2.33,25.85-5.39c0.28-0.09,0.56-0.19,0.84-0.19c1.02,0,1.86,1.02,1.86,1.95
			c0,0.65-0.28,1.3-1.12,1.67c-7.16,3.35-18.04,5.77-27.25,5.77l-3.16-0.09c-5.12-0.37-10.04-2.98-10.04-8c0-0.56,0-1.12,0.19-1.77
			c-7.07,4.56-15.81,12.09-20.09,18.6c-0.47,0.56-0.93,0.84-1.49,0.84C45.56,76.78,44.54,75.95,44.54,74.92z"/>
		<path d="M99.96,72.23c0.19-5.02,5.02-11.9,8.65-17.21c0.37-0.56,0.93-0.84,1.4-0.84c1.12,0,2.05,0.93,2.05,1.86
			c0,0.37-0.09,0.74-0.37,1.12c-2.79,4.19-7.81,11.35-7.91,14.79v0.19c0,0.74,0.56,0.65,1.49,0.65c9.49,0,32.74-9.77,45.57-14.79
			l0.74-0.19c1.3,0,1.58,0.84,1.86,2.05c0,0.65-0.37,1.3-1.21,1.67c-13.76,5.39-36.83,15.07-47.15,15.07
			C101.55,76.51,99.96,75.2,99.96,72.23z M113.91,45.72c0-0.74,0.37-1.4,1.21-1.77l2.42-0.93c0.28-0.09,0.47-0.09,0.65-0.09
			c1.12,0,1.86,1.02,1.86,1.95c0,0.74-0.37,1.4-1.3,1.67l-2.32,1.02c-0.28,0.09-0.47,0.09-0.65,0.09
			C114.66,47.68,113.91,46.74,113.91,45.72z"/>
		<path d="M114.84,122.17c0-0.28,0-0.65,0.19-0.93c11.72-23.16,25.11-47.25,39.25-69.1c0.37-0.65,1.02-0.84,1.58-0.84
			c1.12,0,1.95,0.93,1.95,1.86c0,0.28-0.09,0.65-0.37,1.02c-4,6.32-8.09,12.83-12,19.44c9.21-11.35,19.07-19.81,27.71-19.81
			c3.53,0.09,5.21,1.77,5.21,4.65c0,3.53-2.79,8.37-7.81,11.81c14.69-2.05,33.39-9.11,40.83-12.37l0.74-0.19
			c1.02,0,1.86,1.02,1.95,2.05c0,0.65-0.37,1.3-1.21,1.67c-5.95,2.6-32.08,13.11-48.92,13.11c-4.93,0-9.02-0.93-11.63-3.16
			c-13.02,14.32-26.6,38.13-33.85,51.52c-0.37,0.74-1.02,1.12-1.67,1.12C115.77,124.03,114.84,123.19,114.84,122.17z M174.64,58.93
			c0-1.02-0.46-1.3-1.58-1.3c-5.39,0-11.53,4.19-17.86,10.6c1.86,1.02,3.72,1.4,5.49,1.4C168.32,69.62,174.64,62,174.64,58.93z"/>
		<path d="M188.4,118.36c0-0.56,0.09-1.12,0.19-1.77c2.98-14.04,25.11-33.48,36.92-40.83l5.58-10.88
			c-4.56,3.91-14.23,11.53-20.18,11.53c-3.81,0-5.67-2.98-5.67-5.58c0-5.77,6.6-14.14,9.02-17.3c0.37-0.46,0.93-0.74,1.58-0.74
			c1.02,0,1.86,0.84,1.86,1.86c0,0.46-0.19,0.84-0.37,1.21c-2.42,3.16-8.18,10.97-8.18,14.69c0,1.58,0.56,1.86,2.05,2.14
			c5.95,0,22.79-14.79,25.76-18.6c0.37-0.56,0.93-0.74,1.39-0.74c1.02,0,1.95,0.84,1.95,1.86c0,0.28-0.09,0.65-0.28,1.02
			c-1.49,2.42-6.04,11.44-8.37,16c11.63-6.42,24-10.69,36.36-14.42l0.56-0.09c1.3,0,1.67,0.84,1.86,2.05c0,0.74-0.37,1.49-1.3,1.77
			c-14.23,4.19-28.09,9.21-40.74,16.93c-11.35,21.48-25.48,45.48-34.78,45.48C190.64,123.94,188.4,121.8,188.4,118.36z M221.7,82.83
			c-9.11,6.6-27.06,23.62-29.39,34.5l-0.09,1.02c0,1.4,0.74,1.95,1.77,1.95C200.12,120.31,211.38,102.08,221.7,82.83z"/>
	</g>
</g>
</svg>
